# xmcd CD database file
# Copyright (C) 1996 Ti Kan
#
# Track frame offsets:
# 	150
# 	16999
# 	27384
# 	39242
# 	52665
# 	64829
# 	76392
# 	91127
# 	103158
# 	117118
# 	132084
# 	147994
# 	165762
# 	179153
# 	194255
# 	207845
# 	223947
# 	235706
# 	254166
# 	272292
#
# Disc length: 3829 seconds
#
# Revision: 2
# Processed by: cddbd v1.4b41PL1 Copyright (c) Steve Scherf et al.
# Submitted via: DiscPlay 3.4.1
#
DISCID=120ef314
DTITLE=Various Artist - Giant Country Christmas Volume 1
DYEAR=1900
DGENRE=
TTITLE0=Rockin' Little Christmas
TTITLE1=Blue Christmas
TTITLE2=Star Of Bethlehem
TTITLE3=The Christmas Song
TTITLE4=I'll Be Home For Christmas
TTITLE5=Reason For The Season
TTITLE6=Santa's On Vacation
TTITLE7=Walk All The Way To Memphis
TTITLE8=The Working Elf Blues
TTITLE9=Christmas Angel
TTITLE10=A Mighty Fortress/angles We Have Heard On High
TTITLE11=Mele Kalikimaka
TTITLE12=We Wish You A Merry Christmas
TTITLE13=Bad Boys Reply - Inner Circle W/ Tek
TTITLE14=Theme From Bad Boys - Mark Mancina
TTITLE15=10 Chicken Wangs and A Bottle Of Dam
TTITLE16=Ease On Down Da Road
TTITLE17=Booty Drop
TTITLE18=All Men R. Dawgs
TTITLE19=Buddy-Buddy
EXTD=
EXTT0=Carlene Carter
EXTT1=Clay Walker
EXTT2=Rhonda Vincent
EXTT3=Kenny Rogers
EXTT4=Laura Vida
EXTT5=Orrall and Wright
EXTT6=Dennis Robbins
EXTT7=Deborah Allen
EXTT8=Doron Norwood
EXTT9=Chad Mullins
EXTT10=
EXTT11=
EXTT12=
EXTT13=
EXTT14=
EXTT15=
EXTT16=
EXTT17=
EXTT18=
EXTT19=
PLAYORDER=
